# xmcd
#
# Track frame offsets:
#	150
#	20439
#	42026
#	63535
#	84308
#	112158
#	132231
#	156638
#	176289
#	207955
#	226005
#	241962
#	268364
#	297066
#	331188
#
# Disc length: 4779 seconds
#
# Revision: 1
# Processed by: cddbd v1.5.2PL0 Copyright (c) Steve Scherf et al.
# Submitted via: EasyCDDAExtractor 16.0.9.1
#
DISCID=d012a90f
DTITLE=Gigi D'agostino - Gigi' Friends
DYEAR=2003
DGENRE=Trance
TTITLE0=Gigi D'agostino feat. In-Grid - In-Tango (Psycho Remix)
TTITLE1=Gigi D'agostino feat. Double U Boys - Around My Dreams
TTITLE2=Gigi D'agostino feat. Ricchi and Poveri - Sara Perche Tiamo
TTITLE3=Gigi D'agostino feat. Depeche Mode - I Feel Love
TTITLE4=Gigi D'agostino feat. Shakira - Te Aviso Te Anuncio
TTITLE5=Gigi D'agostino - Ne Un Ne' 2003
TTITLE6=Gigi D'agostino feat. Molella - Tu Sei L'unica Donna Per Me
TTITLE7=Gigi D'agostino feat. DJ C7 - Bla Bla Bla 2003
TTITLE8=Gigi D'agostino feat. Negro Can - Cada Vez 2003 (Long Version)
TTITLE9=Gigi D'agostino feat. Albertino - Super (Riscalomento)
TTITLE10=Gigi D'agostino feat. B1 vs. Maverick - Volare (Short Edit)
TTITLE11=Gigi D'agostino feat. Ago - Put On Your Red Shoes
TTITLE12=Gigi D'agostino - The Riddle (J and B Original Trance Mix)
TTITLE13=Gigi D'agostino - La Passion (L'amour Toujours LP Mix)
TTITLE14=Gigi D'agostino - Another Way (Tanzen Mix)
EXTD=YEAR: 2003 ID3G: 31
EXTT0=
EXTT1=
EXTT2=
EXTT3=
EXTT4=
EXTT5=
EXTT6=
EXTT7=
EXTT8=
EXTT9=
EXTT10=
EXTT11=
EXTT12=
EXTT13=
EXTT14=
PLAYORDER=
